<?xml version="1.0" encoding="utf-8"?>
<!-- Generator: Adobe Illustrator 25.4.1, SVG Export Plug-In . SVG Version: 6.00 Build 0)  -->
<svg version="1.1" id="Calque_1" xmlns="http://www.w3.org/2000/svg" xmlns:xlink="http://www.w3.org/1999/xlink" x="0px" y="0px"
	 viewBox="0 0 245.6 70.9" style="enable-background:new 0 0 245.6 70.9;" xml:space="preserve">
<style type="text/css">
	.st0{fill:#FFFFFF;stroke:#000000;stroke-miterlimit:10;}
	.st1{fill:#1D1D1B;stroke:#1D1D1B;stroke-width:2;stroke-miterlimit:10;}
	.st2{fill:#1D1D1B;stroke:#1D1D1B;stroke-width:7;stroke-miterlimit:10;}
	.st3{fill:#1D1D1B;stroke:#1D1D1B;stroke-width:3;stroke-miterlimit:10;}
</style>
<rect class="st0" width="245.6" height="70.9"/>
<path class="st1" d="M25.8,41.3l3.5,14.1c0.8,3.1,1.5,6,2,8.9h0.2c0.6-2.8,1.5-5.8,2.3-8.8L38,41.3h4l4.1,13.9
	c1,3.3,1.7,6.3,2.3,9.1h0.2c0.5-3,1.2-6,2-9l3.7-14H59l-8.4,27.9h-4.3l-4-13.3c-0.9-3.1-1.7-5.9-2.3-9.1h-0.1
	c-0.6,3.1-1.4,6.2-2.4,9.2l-4.2,13.2h-4.3L21,41.3H25.8z"/>
<path class="st1" d="M65.2,41.3l3.5,14.1c0.8,3.1,1.5,6,2,8.9h0.2c0.6-2.8,1.5-5.8,2.3-8.8l4.3-14.2h4l4.1,13.9
	c1,3.3,1.7,6.3,2.3,9.1H88c0.5-3,1.2-6,2-9l3.7-14h4.7L90,69.2h-4.4l-4-13.3c-0.9-3.1-1.7-5.9-2.3-9.1h-0.1
	c-0.6,3.1-1.4,6.2-2.4,9.2l-4.2,13.2h-4.4l-7.9-27.9L65.2,41.3z"/>
<path class="st1" d="M107.4,33.5c0.3,1.6-0.8,3.2-2.4,3.5s-3.2-0.8-3.5-2.4l0,0c-0.1-0.4-0.1-0.7,0-1.1c-0.1-1.7,1.2-3.1,2.8-3.2
	h0.2c1.6,0,2.9,1.3,2.9,3c0,0,0,0,0,0C107.4,33.4,107.4,33.5,107.4,33.5z M102.1,69.2V41.3h4.8v27.9H102.1z"/>
<path class="st2" d="M115.7,19.1c3.9-0.7,7.9-1,11.9-1c8,0,13.8,2.1,17.6,6s6.1,9.6,6.1,17.4s-2.2,14.4-6.2,18.9s-10.8,7-19.2,7
	c-3.4,0-6.8-0.2-10.2-0.6L115.7,19.1z M121.3,62c1.9,0.3,3.8,0.4,5.7,0.4c12,0,18.5-7.5,18.5-20.6c0.1-11.4-5.7-18.7-17.6-18.7
	c-2.2,0-4.4,0.2-6.6,0.6V62z"/>
<path class="st2" d="M183.1,44.2h-18.9v17.5h21v5.2H158V18.4h26.2v5.2h-20V39h18.9L183.1,44.2z"/>
<path class="st2" d="M203.3,67l-15.8-48.5h6.8l7.6,23.9c2.1,6.6,3.9,12.5,5.2,18.1h0.1c1.4-5.6,3.4-11.7,5.6-18.1l8.2-24h6.7
	L210.2,67H203.3z"/>
<path class="st3" d="M1.5,68.7V1.5h13.2v4.6H6.4v57.9h8.3v4.6H1.5z"/>
<path class="st3" d="M244.1,1.5v67.2h-13.2v-4.6h8.3v-58H231V1.5H244.1z"/>
</svg>
