<svg viewBox="0 0 389.59 138.83" xmlns="http://www.w3.org/2000/svg"><path d="m0 0h389.59v138.83h-389.59z" fill="#fff"/><g fill="#1e1e1c" stroke="#1e1e1c" stroke-miterlimit="10" transform="translate(-102.84 -328.93)"><path d="m169 404.67 4.71 21c1.08 4.61 2 8.92 2.7 13.23h.27c.8-4.17 2-8.62 3.09-13.08l5.66-21.11h5.39l5.52 20.66c1.34 4.91 2.29 9.36 3.09 13.53h.27c.68-4.46 1.62-8.92 2.7-13.38l5-20.81h6.33l-11.31 41.47h-5.79l-5.39-19.77c-1.21-4.61-2.29-8.77-3.1-13.53h-.14a119.78 119.78 0 0 1 -3.23 13.68l-5.66 19.62h-5.79l-10.77-41.47z" stroke-width="2"/><path d="m222.09 404.67 4.71 21c1.08 4.61 2 8.92 2.7 13.23h.27c.8-4.17 2-8.62 3.09-13.08l5.79-21.11h5.35l5.52 20.66c1.35 4.91 2.29 9.36 3.1 13.53h.13c.68-4.46 1.62-8.92 2.7-13.38l5-20.81h6.33l-11.31 41.47h-5.93l-5.39-19.77c-1.21-4.61-2.28-8.77-3.09-13.53h-.14a117.71 117.71 0 0 1 -3.23 13.68l-5.66 19.62h-5.92l-10.64-41.47z" stroke-width="2"/><path d="m278.92 393.07a4.53 4.53 0 0 1 -3.23 5.21 4.15 4.15 0 0 1 -4.72-3.57 3.5 3.5 0 0 1 0-1.64 4.36 4.36 0 0 1 3.77-4.75h.26a4.17 4.17 0 0 1 3.91 4.46zm-7.14 53.07v-41.47h6.47v41.47z" stroke-width="2"/><path d="m290.1 371.67a82.56 82.56 0 0 1 16-1.49c10.78 0 18.59 3.12 23.7 8.92s8.2 14.27 8.2 25.9-3 21.4-8.35 28.09-14.55 10.4-25.86 10.4a105.5 105.5 0 0 1 -13.73-.89zm7.54 63.77a45.12 45.12 0 0 0 7.67.59c16.16 0 24.92-11.15 24.92-30.62.13-16.94-7.68-27.8-23.7-27.8a44.62 44.62 0 0 0 -8.89.9z" stroke-width="7"/><path d="m380.86 409h-25.45v26h28.28v7.73h-36.63v-72.1h35.28v7.73h-26.93v22.89h25.45z" stroke-width="7"/><path d="m408.07 442.87-21.28-72.09h9.21l10.23 35.52c2.83 9.81 5.25 18.58 7 26.91h.14c1.88-8.33 4.58-17.39 7.54-26.91l11-35.67h9l-23.56 72.24z" stroke-width="7"/><path d="m136.31 448.29v-99.88h17.77v6.83h-11.18v86.07h11.18v6.84h-17.77z" stroke-width="3"/><path d="m463 345.51v99.89h-17.77v-6.84h11.18v-86.21h-11v-6.84z" stroke-width="3"/></g></svg>